<?xml version="1.0" encoding="UTF-8" standalone="no"?>
<!-- Created with Inkscape (http://www.inkscape.org/) -->

<svg
   xmlns:dc="http://purl.org/dc/elements/1.1/"
   xmlns:cc="http://creativecommons.org/ns#"
   xmlns:rdf="http://www.w3.org/1999/02/22-rdf-syntax-ns#"
   xmlns:svg="http://www.w3.org/2000/svg"
   xmlns="http://www.w3.org/2000/svg"
   xmlns:sodipodi="http://sodipodi.sourceforge.net/DTD/sodipodi-0.dtd"
   xmlns:inkscape="http://www.inkscape.org/namespaces/inkscape"
   width="128"
   height="128"
   id="svg3075"
   version="1.1"
   inkscape:version="0.48.4 r"
   sodipodi:docname="icon.svg"
   inkscape:export-filename="C:\Users\Georges\Projetos\Virtaus\resources\icon.ico.png"
   inkscape:export-xdpi="90"
   inkscape:export-ydpi="90">
  <defs
     id="defs3077" />
  <sodipodi:namedview
     id="base"
     pagecolor="#ffffff"
     bordercolor="#666666"
     borderopacity="1.0"
     inkscape:pageopacity="0.0"
     inkscape:pageshadow="2"
     inkscape:zoom="15.556349"
     inkscape:cx="39.891516"
     inkscape:cy="44.356656"
     inkscape:current-layer="layer1"
     showgrid="true"
     inkscape:document-units="px"
     inkscape:grid-bbox="true"
     inkscape:window-width="1366"
     inkscape:window-height="745"
     inkscape:window-x="-8"
     inkscape:window-y="-8"
     inkscape:window-maximized="1" />
  <metadata
     id="metadata3080">
    <rdf:RDF>
      <cc:Work
         rdf:about="">
        <dc:format>image/svg+xml</dc:format>
        <dc:type
           rdf:resource="http://purl.org/dc/dcmitype/StillImage" />
        <dc:title></dc:title>
      </cc:Work>
    </rdf:RDF>
  </metadata>
  <g
     id="layer1"
     inkscape:label="Layer 1"
     inkscape:groupmode="layer"
     transform="translate(0,64)">
    <path
       sodipodi:type="arc"
       style="fill:#464646;fill-opacity:1;fill-rule:evenodd;stroke:#464646;stroke-width:2.55158709999999990;stroke-linecap:butt;stroke-linejoin:miter;stroke-miterlimit:4;stroke-opacity:1;stroke-dasharray:none"
       id="path4113"
       sodipodi:cx="33.74828"
       sodipodi:cy="33.59441"
       sodipodi:rx="20.763226"
       sodipodi:ry="20.763226"
       d="m 54.511505,33.59441 c 0,11.467213 -9.296013,20.763225 -20.763225,20.763225 -11.467213,0 -20.763226,-9.296012 -20.763226,-20.763225 0,-11.467213 9.296013,-20.763226 20.763226,-20.763226 11.467212,0 20.763225,9.296013 20.763225,20.763226 z"
       transform="matrix(2.7224442,0,0,2.7224442,-27.877808,-91.458906)"
       inkscape:export-filename="C:\Users\Georges\Projetos\Virtaus\resources\icon.png"
       inkscape:export-xdpi="90"
       inkscape:export-ydpi="90" />
    <path
       id="path4930"
       style="fill:#e1e1e1;fill-opacity:1;stroke:none"
       d="m 79.574699,-14.656041 c 0.85075,0.883882 2.61052,-0.03314 3.45022,0.298311 0.794177,0.368699 4.596239,17.418122 5.107742,17.4048414 0.387191,0.012302 1.488227,-4.9348615 1.826894,-6.2952885 0.59663,-2.1052465 0.867977,-3.1370618 1.238286,-4.0106735 0.26516,-0.81759 0.719209,-1.3194522 1.217398,-1.3194522 0,0 0.514781,0.022013 0.797617,0.8496998 0.303055,0.9659673 1.406689,5.1725368 1.965789,5.4350222 0.593493,0.2116737 4.987145,0.9076711 7.269175,0.666612 -2.28203,0.289271 -6.291141,0.5542977 -7.203453,0.4583287 -0.827699,-0.1029237 -1.471507,-1.0330808 -1.692497,-1.6959918 -0.244982,-0.5517957 -0.746831,-3.1303072 -1.166671,-3.1524042 -0.46111,0.05212 -0.63888,1.856578 -1.12502,3.999992 -0.50824,2.56325693 -1.344046,5.8829948 -1.619338,6.6160168 -0.259505,0.7241599 -0.801826,1.5266247 -1.505702,1.5795435 -0.604027,0.01997 -1.094433,-0.5301924 -1.32362,-1.484795 -0.262014,-0.8630445 -3.71587,-17.6278182 -4.30145,-18.3901662 -0.47533,-0.508065 -2.3473,0.03792 -2.93537,-0.959596 z M 66.0171,15.220554 c 3.72732,-0.545453 5.304054,-1.405293 8.626694,-3.82793 2.66468,-2.0789438 3.667861,-3.4418644 4.243731,-6.4162224 0.52513,-2.523843 0.122415,-4.76224533 -1.386598,-5.69290133 C 75.682727,-1.8747477 72.200769,0.2663854 68.544469,2.6257564 68.231329,6.8707484 67.18761,11.219858 66.0171,15.220554 z m 1.101879,-16.4930328 c 0.89015,-0.736843 1.03969,-1.001752 1.33198,-1.361628 0.21727,-0.423891 0.28591,-0.891458 0.25377,-1.277151 -0.14464,-0.642825 -0.28629,-0.818599 -0.9452,-0.32041 -0.67497,0.674963 -0.52843,1.882077 -0.64055,2.959189 z m -1.53949,4.73207 c 0,0 -1.43947,4.588125 -1.62129,5.679033 -0.36364,1.1363598 -0.87168,6.2715378 -0.87168,6.2715378 1.39204,-3.695075 2.22024,-10.1778478 2.49297,-11.9505708 z m -7.52347,31.8206498 c -0.19284,-3.856938 -1.914792,-7.465885 -1.721942,-10.037176 0.385699,-3.471245 2.802408,-6.710327 4.910815,-8.029611 0.26616,-0.994602 0.148552,-4.33634 0.449524,-6.40803 0.45947,-3.1625665 0.940524,-4.1436424 1.453694,-5.6890194 0.67899,-1.912398 1.657609,-3.6463254 2.171879,-5.12481842 0.3857,-1.34992898 0.28068,-2.43292098 0.6021,-3.84713198 0.42013,-1.536315 2.01095,-3.126438 3.04594,-2.555697 0.9863,0.343471 1.36031,1.646608 0.97461,3.189383 -0.66946,1.694067 -0.36637,0.741925 -1.20378,2.64101098 2.31096,-2.65707898 8.088545,-5.06084128 11.315835,-3.62479428 3.03444,1.957534 3.43792,7.1977148 2.18039,10.9168948 -1.4986,4.2908443 -6.481005,8.4470593 -10.787975,9.9255523 -3.59986,1.204817 -6.01049,1.574917 -6.74974,2.828422 -0.67498,1.574917 -9.515681,36.441758 -25.349947,43.613563 15.796784,-12.306175 22.200067,-42.070788 22.200067,-42.070788 0,0 -3.81477,1.459895 -3.87905,5.702527 -0.19285,2.378445 0.77329,4.841339 0.38758,8.569713 z m -36.2142,-36.9072098 c 0,0 9.321194,0.03204 10.478292,-1.092906 1.832073,-2.667714 2.179779,-4.327517 3.272595,-5.163187 0.899965,-0.642823 1.741499,1.542775 1.741499,1.542775 l 1.335339,5.61707737 c 0,0 0.432458,2.05703283 0.753866,2.05703483 0.330346,-0.03916 0.857862,-3.6466672 1.540467,-7.5277012 0.66572,-3.7850412 1.481126,-6.5917752 1.950111,-7.8987982 0.57855,-0.964237 1.362805,-0.578541 1.555656,0.128559 1.092813,2.249882 8.689679,24.975328 8.689679,24.975328 6.718694,-38.546245 9.812246,-47.110645 38.072446,-75.156424 -27.565235,26.988164 -29.69359,44.893863 -37.488096,90.53993 0,0 -3.290841,-15.227827 -4.833638,-20.4346948 l -4.634204,-14.162968 c -0.160702,-0.932094 -0.713157,-1.152712 -0.80958,-0.381323 0,0 -0.524849,2.5361669 -1.083584,5.5033546 -0.708777,3.76400108 -1.704181,7.6617644 -2.96972,7.8446594 -1.285664,0.12856 -2.908182,-8.286418 -2.908182,-8.286418 0,0 -0.513958,-2.768755 -1.688001,-0.563741 -0.587771,1.10392 -1.575178,2.533715 -2.463621,2.881361 -2.378479,0.64282198 -10.511324,-0.421922 -10.511324,-0.421918 z"
       inkscape:connector-curvature="0"
       sodipodi:nodetypes="ccccccccccccccccccccccccccccccccccccsccccccccccccccccccccsccccccccsccscc"
       inkscape:export-filename="C:\Users\Georges\Projetos\Virtaus\resources\logo.png"
       inkscape:export-xdpi="90"
       inkscape:export-ydpi="90" />
  </g>
</svg>
