<?xml version="1.0" encoding="UTF-8" standalone="no"?>
<!-- Created with Inkscape (http://www.inkscape.org/) -->

<svg
   xmlns:dc="http://purl.org/dc/elements/1.1/"
   xmlns:cc="http://creativecommons.org/ns#"
   xmlns:rdf="http://www.w3.org/1999/02/22-rdf-syntax-ns#"
   xmlns:svg="http://www.w3.org/2000/svg"
   xmlns="http://www.w3.org/2000/svg"
   xmlns:sodipodi="http://sodipodi.sourceforge.net/DTD/sodipodi-0.dtd"
   xmlns:inkscape="http://www.inkscape.org/namespaces/inkscape"
   width="16"
   height="16"
   id="svg2"
   version="1.1"
   inkscape:version="0.48.5 r10040"
   sodipodi:docname="icon.svg">
  <defs
     id="defs4" />
  <sodipodi:namedview
     id="base"
     pagecolor="#ffffff"
     bordercolor="#666666"
     borderopacity="1.0"
     inkscape:pageopacity="0.0"
     inkscape:pageshadow="2"
     inkscape:zoom="17.1875"
     inkscape:cx="-10.714108"
     inkscape:cy="0.62107347"
     inkscape:document-units="px"
     inkscape:current-layer="layer1"
     showgrid="false"
     inkscape:window-width="1366"
     inkscape:window-height="704"
     inkscape:window-x="0"
     inkscape:window-y="27"
     inkscape:window-maximized="1" />
  <metadata
     id="metadata7">
    <rdf:RDF>
      <cc:Work
         rdf:about="">
        <dc:format>image/svg+xml</dc:format>
        <dc:type
           rdf:resource="http://purl.org/dc/dcmitype/StillImage" />
      </cc:Work>
    </rdf:RDF>
  </metadata>
  <g
     inkscape:label="Camada 1"
     inkscape:groupmode="layer"
     id="layer1"
     transform="translate(0,-1036.3622)">
    <path
       id="rect3058"
       style="fill:#bebebe;fill-opacity:1;stroke:none"
       d="m 3,1039.3622 1,0 0,1 -1,0 z m 2.5,0 7,0 0,1 -7,0 z m -4.28125,-2 C 1.0947723,1037.3622 1,1037.457 1,1037.581 l 0,13.5625 c 0,0.1239 0.094772,0.2187 0.21875,0.2187 l 13.5625,0 c 0.123978,0 0.21875,-0.095 0.21875,-0.2187 l 0,-13.5625 c 0,-0.124 -0.09477,-0.2188 -0.21875,-0.2188 l -13.5625,0 z m 0.96875,1 11.625,0 c 0.106267,0 0.1875,0.081 0.1875,0.1875 l 0,11.625 c 0,0.1063 -0.08123,0.1875 -0.1875,0.1875 l -11.625,0 C 2.0812334,1050.3622 2,1050.281 2,1050.1747 l 0,-11.625 c 0,-0.1063 0.081233,-0.1875 0.1875,-0.1875 z m 0.8125,10 1,0 0,1 -1,0 z m 0,-3 1,0 0,1 -1,0 z m 0,-3 1,0 0,1 -1,0 z m 2.5,6 7,0 0,1 -7,0 z m 0,-3 7,0 0,1 -7,0 z m 0,-3 7,0 0,1 -7,0 z" />
  </g>
</svg>
